<?xml version="1.0" standalone="no"?>
<!DOCTYPE svg PUBLIC "-//W3C//DTD SVG 20010904//EN"
 "http://www.w3.org/TR/2001/REC-SVG-20010904/DTD/svg10.dtd">
<svg version="1.0" xmlns="http://www.w3.org/2000/svg"
 width="1607.000000pt" height="1511.000000pt" viewBox="0 0 1607.000000 1511.000000"
 preserveAspectRatio="xMidYMid meet">
<metadata>
Created by potrace 1.11, written by Peter Selinger 2001-2013
</metadata>
<g transform="translate(0.000000,1511.000000) scale(0.100000,-0.100000)"
fill="#000000" stroke="none">
<path d="M7610 15099 c-293 -16 -495 -47 -808 -124 -679 -169 -1231 -440
-1742 -858 -129 -106 -443 -426 -554 -565 -263 -330 -501 -727 -630 -1054
-120 -304 -197 -655 -236 -1078 -18 -184 -24 -912 -11 -1230 6 -157 23 -469
36 -695 14 -225 25 -436 25 -467 0 -120 -39 -143 -235 -142 -190 0 -329 32
-645 144 -185 66 -291 90 -406 90 -115 0 -219 -26 -339 -84 -215 -105 -351
-239 -413 -406 -30 -80 -35 -225 -10 -306 55 -178 195 -343 406 -481 137 -90
305 -163 717 -308 268 -95 423 -160 518 -216 95 -57 216 -178 259 -260 32 -62
33 -67 32 -184 0 -113 -3 -126 -38 -225 -46 -126 -156 -358 -255 -534 -625
-1114 -1553 -1902 -2592 -2201 -64 -19 -177 -48 -250 -64 -301 -69 -439 -191
-439 -386 0 -139 72 -285 203 -412 254 -246 740 -430 1580 -598 151 -30 290
-62 310 -70 49 -20 92 -76 111 -144 8 -31 35 -144 60 -251 78 -345 142 -500
234 -564 77 -53 145 -70 277 -70 124 1 200 12 555 81 l185 36 430 1 c357 0
451 -2 551 -17 371 -52 566 -146 1178 -566 819 -563 1165 -734 1711 -848 l170
-35 340 -5 c416 -6 625 6 826 46 463 95 832 268 1444 680 127 85 331 222 455
306 323 217 473 297 680 363 234 74 603 98 1148 72 167 -8 233 -16 380 -45
201 -41 323 -54 500 -55 117 0 125 1 183 30 159 81 198 158 308 603 69 281 92
349 127 376 15 12 55 23 112 31 607 84 1369 323 1679 526 84 56 203 178 250
259 64 108 86 189 81 293 -5 102 -29 160 -92 223 -65 64 -141 94 -416 163
-140 36 -300 80 -355 99 -828 282 -1596 912 -2188 1795 -238 354 -413 679
-482 892 -37 113 -45 263 -20 341 68 212 297 360 855 554 642 223 893 391
1049 702 30 61 31 66 31 200 l0 138 -45 84 c-115 214 -279 346 -510 413 -70
20 -102 23 -250 23 -201 -1 -264 -14 -522 -106 -277 -100 -333 -113 -513 -113
-187 -1 -204 5 -216 81 -4 26 3 207 15 402 50 826 54 1982 6 2291 -112 733
-358 1284 -836 1875 -450 556 -983 951 -1647 1221 -424 172 -981 308 -1367
334 -172 11 -740 11 -955 -1z"/>
</g>
</svg>
