<?xml version="1.0" standalone="no"?>
<!DOCTYPE svg PUBLIC "-//W3C//DTD SVG 20010904//EN"
 "http://www.w3.org/TR/2001/REC-SVG-20010904/DTD/svg10.dtd">
<svg version="1.0" xmlns="http://www.w3.org/2000/svg"
 width="1607.000000pt" height="1511.000000pt" viewBox="0 0 1607.000000 1511.000000"
 preserveAspectRatio="xMidYMid meet">
<metadata>
Created by potrace 1.11, written by Peter Selinger 2001-2013
</metadata>
<g transform="translate(0.000000,1511.000000) scale(0.100000,-0.100000)"
fill="#000000" stroke="none">
<path d="M7635 15099 c-444 -17 -993 -140 -1470 -330 -160 -63 -500 -236 -645
-327 -568 -357 -1006 -806 -1356 -1389 -261 -435 -381 -739 -458 -1168 -56
-310 -73 -507 -82 -955 -8 -369 5 -754 47 -1445 37 -598 39 -570 -46 -594 -61
-16 -249 -17 -348 -1 -125 20 -295 69 -451 130 -248 97 -353 116 -515 90 -135
-22 -308 -99 -429 -190 -169 -127 -252 -277 -252 -454 0 -140 46 -259 149
-389 164 -205 411 -338 1031 -552 267 -92 377 -138 479 -202 99 -62 216 -180
261 -263 34 -64 35 -67 34 -180 0 -103 -4 -125 -33 -208 -42 -122 -131 -314
-221 -483 -662 -1226 -1739 -2109 -2848 -2334 -234 -48 -284 -67 -368 -146
-73 -70 -104 -142 -105 -248 -2 -190 119 -376 338 -521 311 -205 767 -355
1512 -495 135 -25 259 -52 277 -60 27 -11 35 -23 52 -77 27 -82 53 -185 96
-388 57 -263 94 -357 177 -446 122 -128 285 -147 649 -75 436 85 415 83 855
84 434 2 538 -7 738 -57 272 -69 472 -180 1042 -576 765 -532 1167 -721 1750
-822 120 -21 161 -22 545 -22 391 -1 423 1 545 22 560 100 962 282 1615 731
381 261 589 401 683 455 355 208 638 276 1144 276 437 -1 609 -17 953 -90 76
-16 133 -20 289 -20 l193 0 59 31 c75 40 142 112 181 194 17 38 56 171 94 327
98 405 105 428 134 450 16 11 69 25 145 38 172 28 493 94 684 141 739 181
1177 434 1282 739 17 49 22 88 22 160 0 119 -24 187 -85 247 -75 73 -127 92
-468 173 -566 134 -1132 437 -1628 872 -127 112 -395 386 -500 513 -369 442
-729 1031 -842 1375 -111 340 -22 541 320 718 113 60 257 117 518 206 640 220
877 379 1036 693 36 72 36 74 36 198 l0 125 -39 78 c-118 235 -304 376 -586
443 -107 25 -288 27 -402 3 -43 -8 -150 -44 -239 -79 -318 -126 -549 -169
-712 -134 -86 18 -87 20 -85 158 1 66 11 261 22 433 38 584 44 800 38 1388 -6
585 -9 639 -57 935 -70 430 -217 829 -451 1216 -547 909 -1296 1514 -2280
1843 -375 125 -840 220 -1159 236 -200 11 -587 10 -865 -1z m1126 -397 c943
-144 1724 -536 2330 -1171 406 -424 744 -997 863 -1463 99 -385 132 -796 123
-1508 -6 -428 -14 -626 -57 -1325 -25 -410 -26 -461 -1 -502 39 -62 184 -151
311 -191 253 -78 557 -36 986 134 161 64 174 67 269 72 89 4 109 1 180 -22
209 -71 328 -181 311 -290 -14 -86 -82 -165 -223 -256 -138 -91 -301 -162
-608 -267 -498 -170 -723 -288 -898 -473 -71 -74 -96 -109 -137 -193 -72 -146
-85 -204 -84 -367 0 -113 5 -152 28 -240 67 -261 265 -658 524 -1055 434 -666
1018 -1242 1640 -1619 377 -229 853 -412 1272 -491 107 -20 120 -31 91 -78
-74 -121 -318 -260 -654 -373 -245 -83 -701 -187 -1086 -250 -208 -33 -253
-57 -332 -177 -51 -78 -77 -161 -153 -487 -36 -151 -71 -295 -79 -320 l-13
-45 -93 2 c-89 2 -468 63 -626 101 -60 14 -126 16 -479 14 -450 -2 -539 -8
-760 -53 -359 -72 -590 -182 -1066 -508 -618 -423 -790 -531 -1033 -653 -296
-148 -561 -228 -858 -259 -147 -15 -702 -6 -893 15 -256 29 -556 125 -831 267
-206 106 -413 238 -870 554 -621 430 -870 544 -1346 616 -129 19 -182 22 -514
21 -409 -1 -469 -7 -880 -87 -211 -41 -341 -53 -374 -36 -12 7 -27 24 -32 39
-17 44 -76 277 -104 412 -62 298 -153 478 -267 534 -39 19 -109 35 -273 61
-538 87 -1061 231 -1353 373 -140 67 -267 165 -314 241 -20 32 -21 34 -3 47
10 7 61 23 114 34 619 137 1130 373 1651 764 181 135 316 251 489 420 416 408
734 835 1021 1375 212 397 292 634 293 871 1 179 -46 317 -152 450 -166 208
-447 368 -961 545 -407 140 -637 254 -759 376 -45 45 -91 128 -91 164 0 79 69
170 169 224 79 42 197 71 286 71 65 0 87 -6 235 -65 183 -74 347 -124 495
-151 138 -26 379 -26 489 0 165 38 331 130 390 215 28 41 28 41 22 158 -4 65
-13 199 -21 298 -40 496 -58 1091 -52 1750 4 495 5 529 30 698 64 439 125 632
310 991 355 687 890 1238 1563 1610 358 198 835 359 1292 437 225 39 428 48
992 44 370 -2 442 -5 561 -23z"/>
</g>
</svg>
